# xmcd
#
# Track frame offsets:
#	150
#	20095
#	39350
#	60155
#	79062
#	93667
#	111115
#	128640
#	145695
#	170825
#	191022
#	209382
#	231475
#	250012
#
# Disc length: 3594 seconds
#
# Revision: 0
# Processed by: cddbd v1.4PL0 Copyright (c) Steve Scherf et al.
# Submitted via: gmmusic 1.1.9
#
DISCID=be0e080e
DTITLE=Inga Rumpf - In the 25th Hour
DYEAR=1996
DGENRE=Blues
TTITLE0=Undercover Agent for the Blues
TTITLE1=The Nicer the Nice
TTITLE2=Summertime
TTITLE3=In the 25th Hour
TTITLE4=Cakewalk Into Town
TTITLE5=My Own Way to Rock
TTITLE6=Crazy for Rhythm
TTITLE7=Love is Gold
TTITLE8=Unchain My Heart
TTITLE9=Ain't No Hour Too Late
TTITLE10=Like a Ship in the Rocks
TTITLE11=I Cover the Waterfront
TTITLE12=What is a Handful of Gold
TTITLE13=Everything is Possible
EXTD=
EXTT0=
EXTT1=
EXTT2=
EXTT3=
EXTT4=
EXTT5=
EXTT6=
EXTT7=
EXTT8=
EXTT9=
EXTT10=
EXTT11=
EXTT12=
EXTT13=
PLAYORDER=
